<svg xmlns="http://www.w3.org/2000/svg" width="329.668" height="295.875" viewBox="0 0 329.668 295.875">
  <g id="undraw_Add_files_re_v09g" transform="translate(-0.006 -0.006)">
    <path id="Path_106" data-name="Path 106" d="M377.816,99.708l-10.727,2.766L234.931,136.556,224.2,139.322a20.31,20.31,0,0,0-14.578,24.71L256.14,344.4a20.31,20.31,0,0,0,24.71,14.579l.028-.007,153.556-39.6.028-.007a20.31,20.31,0,0,0,14.578-24.71L402.526,114.287a20.31,20.31,0,0,0-24.71-14.579Z" transform="translate(-208.978 -99.06)" fill="#f2f2f2"/>
    <path id="Path_107" data-name="Path 107" d="M387.288,113.377l-12.705,3.276-128.2,33.061-12.705,3.276a14.463,14.463,0,0,0-10.382,17.6L269.81,350.959a14.463,14.463,0,0,0,17.6,10.382l.028-.007,153.556-39.6.028-.007a14.463,14.463,0,0,0,10.382-17.6L404.885,123.759A14.463,14.463,0,0,0,387.288,113.377Z" transform="translate(-216.992 -107.074)" fill="#fff"/>
    <path id="Path_108" data-name="Path 108" d="M477.8,243.438l-77.68,20.032a3.378,3.378,0,1,1-1.687-6.543l77.68-20.032a3.378,3.378,0,1,1,1.687,6.542Z" transform="translate(-317.1 -178.725)" fill="#f2f2f2"/>
    <path id="Path_109" data-name="Path 109" d="M498.051,261.373l-91.174,23.512a3.378,3.378,0,0,1-1.687-6.543l91.174-23.512a3.378,3.378,0,1,1,1.687,6.543Z" transform="translate(-321.006 -189.1)" fill="#f2f2f2"/>
    <path id="Path_110" data-name="Path 110" d="M508.071,360.811l-77.68,20.032A3.378,3.378,0,1,1,428.7,374.3l77.68-20.032a3.378,3.378,0,1,1,1.687,6.543Z" transform="translate(-334.608 -246.62)" fill="#f2f2f2"/>
    <path id="Path_111" data-name="Path 111" d="M528.319,378.747l-91.174,23.512a3.378,3.378,0,1,1-1.687-6.543L526.632,372.2a3.378,3.378,0,1,1,1.687,6.543Z" transform="translate(-338.515 -256.995)" fill="#f2f2f2"/>
    <path id="Path_112" data-name="Path 112" d="M538.34,478.184l-77.68,20.032a3.378,3.378,0,0,1-1.687-6.543l77.68-20.032a3.378,3.378,0,1,1,1.687,6.543Z" transform="translate(-352.117 -314.514)" fill="#f2f2f2"/>
    <path id="Path_113" data-name="Path 113" d="M558.588,496.12l-91.174,23.512a3.378,3.378,0,0,1-1.687-6.543L556.9,489.578a3.378,3.378,0,0,1,1.687,6.543Z" transform="translate(-356.024 -324.889)" fill="#f2f2f2"/>
    <path id="Path_114" data-name="Path 114" d="M325.3,310.855l-27.49,7.089a1.622,1.622,0,0,1-1.973-1.164l-6.311-24.47a1.622,1.622,0,0,1,1.164-1.973l27.49-7.089a1.622,1.622,0,0,1,1.973,1.164l6.31,24.47A1.622,1.622,0,0,1,325.3,310.855Z" transform="translate(-255.538 -205.571)" fill="#e6e6e6"/>
    <path id="Path_115" data-name="Path 115" d="M355.568,428.229l-27.49,7.089a1.622,1.622,0,0,1-1.973-1.164l-6.31-24.47a1.622,1.622,0,0,1,1.164-1.973l27.49-7.089a1.622,1.622,0,0,1,1.973,1.164l6.31,24.47a1.622,1.622,0,0,1-1.164,1.973Z" transform="translate(-273.047 -273.465)" fill="#e6e6e6"/>
    <path id="Path_116" data-name="Path 116" d="M385.836,545.6l-27.49,7.089a1.622,1.622,0,0,1-1.973-1.164l-6.31-24.47a1.622,1.622,0,0,1,1.164-1.973L378.716,518a1.622,1.622,0,0,1,1.973,1.164L387,543.63a1.622,1.622,0,0,1-1.164,1.973Z" transform="translate(-290.555 -341.36)" fill="#e6e6e6"/>
    <path id="Path_117" data-name="Path 117" d="M618.117,209.052H459.48a20.31,20.31,0,0,0-20.287,20.287V415.611A20.31,20.31,0,0,0,459.48,435.9H618.117A20.31,20.31,0,0,0,638.4,415.611V229.339a20.31,20.31,0,0,0-20.287-20.287Z" transform="translate(-342.143 -162.682)" fill="#e6e6e6"/>
    <path id="Path_118" data-name="Path 118" d="M626.131,222.906H467.494a14.463,14.463,0,0,0-14.447,14.447V423.625a14.463,14.463,0,0,0,14.447,14.447H626.131a14.463,14.463,0,0,0,14.447-14.447V237.353A14.463,14.463,0,0,0,626.131,222.906Z" transform="translate(-350.156 -170.695)" fill="#fff"/>
    <circle id="Ellipse_30" data-name="Ellipse 30" cx="37.033" cy="37.033" r="37.033" transform="translate(255.607 221.814)" fill="#38b86f"/>
    <path id="Path_119" data-name="Path 119" d="M889.951,677.327H877.07V664.446a4.83,4.83,0,1,0-9.661,0v12.881H854.528a4.83,4.83,0,0,0,0,9.661h12.881v12.881a4.83,4.83,0,0,0,9.661,0V686.988h12.881a4.83,4.83,0,1,0,0-9.661Z" transform="translate(-579.599 -423.31)" fill="#fff"/>
    <path id="Path_120" data-name="Path 120" d="M692.285,456.444H612.063a3.378,3.378,0,1,1,0-6.757h80.222a3.378,3.378,0,0,1,0,6.757Z" transform="translate(-440.185 -301.878)" fill="#e6e6e6"/>
    <path id="Path_121" data-name="Path 121" d="M706.22,483.491H612.063a3.378,3.378,0,1,1,0-6.757H706.22a3.378,3.378,0,1,1,0,6.757Z" transform="translate(-440.185 -317.523)" fill="#e6e6e6"/>
    <path id="Path_122" data-name="Path 122" d="M692.285,577.657H612.063a3.378,3.378,0,1,1,0-6.757h80.222a3.378,3.378,0,0,1,0,6.757Z" transform="translate(-440.185 -371.993)" fill="#e6e6e6"/>
    <path id="Path_123" data-name="Path 123" d="M706.22,604.705H612.063a3.378,3.378,0,1,1,0-6.757H706.22a3.378,3.378,0,1,1,0,6.757Z" transform="translate(-440.185 -387.639)" fill="#e6e6e6"/>
    <path id="Path_124" data-name="Path 124" d="M532.891,465.92H504.5a1.622,1.622,0,0,1-1.62-1.62V439.029a1.622,1.622,0,0,1,1.62-1.62h28.39a1.622,1.622,0,0,1,1.62,1.62V464.3A1.622,1.622,0,0,1,532.891,465.92Z" transform="translate(-378.983 -294.775)" fill="#e6e6e6"/>
    <path id="Path_125" data-name="Path 125" d="M532.891,587.133H504.5a1.622,1.622,0,0,1-1.62-1.62V560.242a1.622,1.622,0,0,1,1.62-1.62h28.39a1.622,1.622,0,0,1,1.62,1.62v25.271A1.622,1.622,0,0,1,532.891,587.133Z" transform="translate(-378.983 -364.891)" fill="#e6e6e6"/>
    <path id="Path_126" data-name="Path 126" d="M721.418,321.51H662.274a3.378,3.378,0,0,1,0-6.757h59.144a3.378,3.378,0,1,1,0,6.757Z" transform="translate(-469.23 -223.824)" fill="#ccc"/>
    <path id="Path_127" data-name="Path 127" d="M735.354,348.557h-73.08a3.378,3.378,0,1,1,0-6.757h73.08a3.378,3.378,0,1,1,0,6.757Z" transform="translate(-469.23 -239.47)" fill="#ccc"/>
    <path id="Path_128" data-name="Path 128" d="M558.816,327.768H504.29a1.622,1.622,0,0,1-1.62-1.62V283.594a1.622,1.622,0,0,1,1.62-1.62h54.526a1.622,1.622,0,0,1,1.62,1.62v42.554A1.622,1.622,0,0,1,558.816,327.768Z" transform="translate(-378.861 -204.864)" fill="#38b86f"/>
  </g>
</svg>
