<svg id="undraw_Current_location_re_j130" xmlns="http://www.w3.org/2000/svg" width="490.994" height="696.097" viewBox="0 0 490.994 696.097">
  <path id="Path_2996" data-name="Path 2996" d="M589.616,444.977a11.965,11.965,0,0,1-13.667-12.232L536.271,417.5l17.965-12.851L589.16,421.1a12.026,12.026,0,0,1,.454,23.881Z" transform="translate(-337.755 -100.736)" fill="#ffb7b7"/>
  <path id="Path_2997" data-name="Path 2997" d="M566.943,434.038l6.2-21.853-.3-.208-58.03-39.42L464.64,322.225,435.419,333.9l1.919,9.249.125.113L504.158,403l.062.03Z" transform="translate(-337.755 -100.736)" fill="#3f3d56"/>
  <path id="Path_26" data-name="Path 26" d="M281.883,383.218l-89.809-12.589,7.9-55.108H266.1Z" transform="translate(-112.143)" fill="#ffb6b6"/>
  <path id="Path_27" data-name="Path 27" d="M129.283,653.061l18.423,4.281,25.28-69.021L145.8,582Z" transform="translate(-112.143)" fill="#ffb6b6"/>
  <path id="Path_28" data-name="Path 28" d="M337.755,783.457l13.211,3.07,5.257-11.925,3.141,13.877,35.04,8.143a8.087,8.087,0,0,0,7.813-13.318l-23.491-25.828,2.93-12.61-29.84-5.083Z" transform="translate(-337.755 -100.736)" fill="#2f2e41"/>
  <path id="Path_29" data-name="Path 29" d="M242.956,663.327H261.87l9-72.951H242.956Z" transform="translate(-112.143)" fill="#ffb6b6"/>
  <path id="Path_30" data-name="Path 30" d="M458.586,796.833h13.563l2.421-12.806,6.2,12.806h35.974a8.087,8.087,0,0,0,4.6-14.741l-28.728-19.84V749.306l-30.216,1.8Z" transform="translate(-337.755 -100.736)" fill="#2f2e41"/>
  <path id="Path_31" data-name="Path 31" d="M416.551,462.014l87.829-6.986c25.917,60.542,9.438,157.191-10.48,265.99l-28.25,3.653L463.46,549.843,392.642,712.484l-29.443-1.5Z" transform="translate(-337.755 -100.736)" fill="#2f2e41"/>
  <path id="Path_3002" data-name="Path 3002" d="M467.675,302.588V272.875a39.816,39.816,0,0,0-79.632,0c-7.017,14.623-2.627,21.576,0,29.714a5.355,5.355,0,0,0,5.346,5.346h68.937A5.355,5.355,0,0,0,467.675,302.588Z" transform="translate(-337.755 -100.736)" fill="#2f2e41"/>
  <circle id="Ellipse_572" data-name="Ellipse 572" cx="29.192" cy="29.192" r="29.192" transform="translate(70.738 148.367)" fill="#ffb7b7"/>
  <path id="Path_3003" data-name="Path 3003" d="M477.094,275.251a31.532,31.532,0,0,0-31.5-31.5h-5.943a31.532,31.532,0,0,0-31.5,31.5v.595c4.451,3.043,8.676,3.488,12.559,0L425,263.851l.857,11.994h6.492l2.164-6.051.433,6.051c8.768,7.467,25.348,3.889,42.147,0Z" transform="translate(-337.755 -100.736)" fill="#2f2e41"/>
  <path id="Path_3004" data-name="Path 3004" d="M420.662,432.364l74.325-2.828,4.155-48.624c3.2-8.9,3.256-16.547.154-22.713a22.736,22.736,0,0,0-12.552-10.849l-16.263-19.643A22.136,22.136,0,0,0,453.3,319.7l-42.259.289c-1.018-.612-7.2-3.752-19.382,1.527-13.216,5.728-10.147,25.628-10.114,25.828l.031.187.145.127,28.108,23.675Z" transform="translate(-337.755 -100.736)" fill="#3f3d56"/>
  <path id="Path_32" data-name="Path 32" d="M759.368,346.873c-47.961,54.051-192.265,64.36-286.194,163.576-31.491-95.9,13.12-261.445,57.579-324.575A139.809,139.809,0,0,1,725.56,152.066C788.69,196.524,810.616,289.118,759.368,346.873Z" transform="translate(-337.755 -100.736)" fill="#fff"/>
  <circle id="Ellipse_577" data-name="Ellipse 577" cx="45.596" cy="45.596" r="45.596" transform="translate(259.806 103.092)" fill="#38b86f"/>
  <circle id="Ellipse_577-2" data-name="Ellipse 577" cx="29.865" cy="29.865" r="29.865" transform="translate(67.009 399.641)" fill="#fff"/>
  <path id="Path_3011" data-name="Path 3011" d="M400.463,528.081a11.965,11.965,0,0,1,.63-18.329l-13.725-40.229,21.384,5.555,9.745,37.349a12.026,12.026,0,0,1-18.039,15.656Z" transform="translate(-337.755 -100.736)" fill="#ffb7b7"/>
  <path id="Path_3012" data-name="Path 3012" d="M394.332,503.667l20.748-9.246-6.97-70.177L414.6,353.48l-27.7-14.95-5.869,7.4v.168l-3.11,89.483.017.067Z" transform="translate(-337.755 -100.736)" fill="#3f3d56"/>
  <circle id="Ellipse_23" data-name="Ellipse 23" cx="12" cy="12" r="12" transform="translate(317.923 383.5)" fill="#f2f2f2"/>
  <circle id="Ellipse_24" data-name="Ellipse 24" cx="12" cy="12" r="12" transform="translate(466.994 239.758)" fill="#f2f2f2"/>
  <circle id="Ellipse_25" data-name="Ellipse 25" cx="12" cy="12" r="12" transform="translate(55)" fill="#f2f2f2"/>
  <path id="Path_53" data-name="Path 53" d="M683.077,227.954c11.289,19.3,6.435,43.585-10.81,57.82a45.578,45.578,0,0,1-59.076-.891,45.587,45.587,0,0,0,82.876-9.368c5.394-17.232.591-35.664-12.99-47.561Z" transform="translate(-338.233 -101.886)" fill="#231f20" opacity="0.2"/>
  <path id="Path_54" data-name="Path 54" d="M738.943,164.816c37.43,48.4,43.531,118.531,2.057,165.271C694.66,382.31,558.39,393.709,464.508,483.9a193.392,193.392,0,0,0,6.751,27.759c93.929-99.216,238.233-109.526,286.194-163.576C804.418,295.161,790.278,212.4,738.943,164.816Z" transform="translate(-335.755 -100.736)" fill="#231f20" opacity="0.2"/>
</svg>
